<?xml version="1.0" encoding="utf-8"?>
<!-- Generator: Adobe Illustrator 22.0.1, SVG Export Plug-In . SVG Version: 6.00 Build 0)  -->
<svg version="1.1" id="Layer_1" xmlns="http://www.w3.org/2000/svg" xmlns:xlink="http://www.w3.org/1999/xlink" x="0px" y="0px"
	 viewBox="0 0 1000 1000" style="enable-background:new 0 0 1000 1000;" xml:space="preserve">
<style type="text/css">
	.st0{fill:#DDDDDD;}
	.st1{fill:#CECECE;}
	.st2{fill:none;stroke:#000000;stroke-width:0.5;stroke-miterlimit:10;stroke-dasharray:4;}
	.st3{fill:none;stroke:#7A7A7A;stroke-width:4;stroke-linecap:round;stroke-miterlimit:10;}
	.st4{fill:#BEBEBE;}
	.st5{fill:#4B4B4B;}
	.st6{fill:#FFFFFF;}
	.st7{font-family:'OpenSans-Bold';}
	.st8{font-size:34.6336px;}
	.st9{font-size:50.6584px;}
	.st10{fill:none;stroke:#FFFFFF;stroke-miterlimit:10;}
	.st11{fill:#545454;}
</style>
<rect x="-3.1" y="-2.8" class="st0" width="1005.4" height="1034.7"/>
<path class="st1" d="M-1.3-0.9l7.4,187.8l11.1-47l3.7,35.2l3.7,58.7l11.1-93.9l11.1,211.3L54,316l11.1,117.4l7.4-70.4l22.1,551.6
	l7.4-47l3.7,129.2l7.4-105.6l7.4-152.6l11.1,164.3V644.5l18.4-82.2c0,0-0.5-105.8,11.1-105.6c0,0,9.7-175.7,18.4-176L194,409.9
	l14.7-23.4c0,0,11.2,200.2,22.1,234.7c0,0,16.9,269.5,14.7,375.6l7.4-117.4l7.4,93.9l7.4-93.9L297,691.5l7.4-187.8l7.4,140.8
	l7.4-211.2l11.1-152.7l11.1,152.6l7.4-117.4l11.1,199.5l14.7-93.9l11.1,140.8l7.4-93.9l7.4,47l11.1-58.7l7.4,105.8l18.4-58.7
	l33.2-246.4l14.7,176l7.4-70.4l11.1,187.8l3.7-105.6l11,105.6V433.3l14.7,234.9l14.7-223l14.7,164.3l11.1-82.2l18.4-352.1l7.4,117.4
	l11.1-82.2l14.7,129.2V210.4l14.7-58.7l3.7,129.2l14.7-94.1l29.5,352.1L706,222.1l7.4,70.4l11.1-70.4l14.7,11.8l18.3-140.6
	l11.1,387.6l25.8-281.6l11.1,246.4l18.5-165l11.1,152.6l7.4-140.8l18.4,93.9l14.7-82.2L912.3,844l29.5-258.4l3.7-58.7l14.7,70.4
	l7.4-140.8l7.4,47l3.7-82L1004.3-1L-1.3-0.9z"/>
<title>difference-illo-intelligence</title>
<polyline class="st2" points="881.2,651.8 913.7,651.8 913.7,614.4 "/>
<polyline class="st2" points="129.4,660.9 49.7,660.9 49.7,623.5 "/>
<path class="st3" d="M983.4,268l-48.1,300.6c-9.6,60.2-32.3,67.8-50.3,17c-18.1-50.8-47.6-63.3-65.6-27.7
	c-18,35.6-47.6,89.7-65.6,120.1c-18,30.4-47.6,47.1-65.6,37c-21.3-11.6-43.3-20.8-65.6-27.7c-18-5.1-47.6-25.9-65.6-46.2
	c-18-20.3-47.6-32.8-65.6-27.7s-47.7,21.7-65.7,36.9s-43-20.7-55.5-79.8l-20.2-95.3c-12.4-59.2-37.5-96.2-55.5-82.4
	s-44.7-22.4-59.2-80.6l-19.5-78.3c-14.4-58.2-39.6-77.3-55.9-42.4S122.1,304,112.3,364.2l-30.2,186c-9.8,60.1-31.6,88.5-48.6,63.1
	L2.7,567.1"/>
<circle class="st4" cx="962.7" cy="389.4" r="14.5"/>
<circle class="st5" cx="704.9" cy="719" r="14.5"/>
<text transform="matrix(1 0 0 1 14.9199 184.8127)" class="st6 st7 st8">98%</text>
<polyline class="st2" points="132.2,247.2 132.2,169.2 92.6,169.2 "/>
<circle class="st4" cx="132.4" cy="241" r="14.5"/>
<path class="st4" d="M281.2,114.8h287.1c7.7,0,14,6.3,14,14v106.8c0,7.7-6.3,14-14,14H281.2c-7.7,0-14-6.3-14-14V128.9
	C267.2,121.1,273.5,114.8,281.2,114.8z"/>
<polygon class="st4" points="284.1,180.7 181.4,170.4 282.6,155.2 "/>
<text transform="matrix(1 0 0 1 285.7224 172.3836)" class="st6 st7 st9">100%</text>
<circle class="st10" cx="351.9" cy="209.5" r="27.1"/>
<rect x="339.5" y="209.3" transform="matrix(0.5708 -0.8211 0.8211 0.5708 -18.6241 384.6457)" class="st6" width="38.2" height="1.6"/>
<polygon class="st6" points="333.3,213.6 332.4,215 347.4,225.4 348.8,226.3 349.7,225 348.4,224.1 "/>
<rect x="436.7" y="164.1" class="st6" width="19.8" height="7.8"/>
<rect x="460.5" y="164.1" class="st6" width="27.8" height="7.8"/>
<rect x="491.5" y="164.1" class="st6" width="41.7" height="7.8"/>
<rect x="537.3" y="164.1" class="st6" width="8" height="7.8"/>
<rect x="436.7" y="179.5" class="st6" width="36.1" height="7.8"/>
<rect x="476.9" y="179.5" class="st6" width="25.5" height="7.8"/>
<rect x="492.4" y="179.5" class="st6" width="20.6" height="7.8"/>
<rect x="517.1" y="179.5" class="st6" width="34.7" height="7.8"/>
<rect x="436.7" y="133.2" class="st6" width="19.6" height="7.8"/>
<rect x="460.4" y="133.2" class="st6" width="41.6" height="7.8"/>
<rect x="505.2" y="133.2" class="st6" width="35.4" height="7.8"/>
<rect x="536.8" y="133.2" class="st6" width="15.8" height="7.8"/>
<rect x="436.7" y="148.6" class="st6" width="36.1" height="7.8"/>
<rect x="476.9" y="148.6" class="st6" width="25.5" height="7.8"/>
<rect x="505.5" y="148.6" class="st6" width="7.4" height="7.8"/>
<rect x="517.1" y="148.6" class="st6" width="45.7" height="7.8"/>
<rect x="436.7" y="211.1" class="st6" width="19.8" height="7.8"/>
<rect x="460.5" y="211.1" class="st6" width="47.8" height="7.8"/>
<rect x="511.5" y="211.1" class="st6" width="21.7" height="7.8"/>
<rect x="537.3" y="211.1" class="st6" width="8" height="7.8"/>
<rect x="436.7" y="226.5" class="st6" width="36.1" height="7.8"/>
<rect x="476.9" y="226.5" class="st6" width="25.5" height="7.8"/>
<rect x="505.5" y="226.5" class="st6" width="7.4" height="7.8"/>
<rect x="517.1" y="226.5" class="st6" width="34.7" height="7.8"/>
<rect x="436.7" y="195.7" class="st6" width="36.1" height="7.8"/>
<rect x="476.9" y="195.7" class="st6" width="21.5" height="7.8"/>
<rect x="501.5" y="195.7" class="st6" width="11.4" height="7.8"/>
<rect x="517.1" y="195.7" class="st6" width="45.7" height="7.8"/>
<g>
	<path class="st4" d="M646.8,207.9h287.1c7.7,0,14,6.3,14,14v106.8c0,7.7-6.3,14-14,14H646.8c-7.7,0-14-6.3-14-14V221.9
		C632.7,214.2,639,207.9,646.8,207.9z"/>
	<polygon class="st4" points="921.1,337.3 958.7,374.9 899.5,337.3 	"/>
	<text transform="matrix(1 0 0 1 665.6959 265.4589)" class="st6 st7 st9">75%</text>
	<circle class="st10" cx="717.4" cy="302.5" r="27.1"/>
	
		<rect x="704.2" y="302.6" transform="matrix(0.5708 -0.8211 0.8211 0.5708 61.3506 724.0771)" class="st6" width="38.2" height="1.6"/>
	<polygon class="st6" points="698.8,306.7 697.9,308 713,318.5 714.3,319.4 715.2,318.1 713.9,317.2 	"/>
	<rect x="802.2" y="257.1" class="st6" width="19.8" height="7.8"/>
	<rect x="826.1" y="257.1" class="st6" width="27.8" height="7.8"/>
	<rect x="857" y="257.1" class="st6" width="41.7" height="7.8"/>
	<rect x="902.8" y="257.1" class="st6" width="8" height="7.8"/>
	<rect x="802.2" y="272.6" class="st6" width="36.1" height="7.8"/>
	<rect x="842.4" y="272.6" class="st6" width="25.5" height="7.8"/>
	<rect x="857.9" y="272.6" class="st6" width="20.6" height="7.8"/>
	<rect x="882.6" y="272.6" class="st6" width="34.7" height="7.8"/>
	<rect x="802.2" y="226.3" class="st6" width="19.6" height="7.8"/>
	<rect x="825.9" y="226.3" class="st6" width="41.6" height="7.8"/>
	<rect x="870.7" y="226.3" class="st6" width="35.4" height="7.8"/>
	<rect x="902.3" y="226.3" class="st6" width="15.8" height="7.8"/>
	<rect x="802.2" y="241.7" class="st6" width="36.1" height="7.8"/>
	<rect x="842.4" y="241.7" class="st6" width="25.5" height="7.8"/>
	<rect x="871.1" y="241.7" class="st6" width="7.4" height="7.8"/>
	<rect x="882.6" y="241.7" class="st6" width="45.7" height="7.8"/>
	<rect x="802.2" y="304.2" class="st6" width="19.8" height="7.8"/>
	<rect x="826.1" y="304.2" class="st6" width="47.8" height="7.8"/>
	<rect x="877.1" y="304.2" class="st6" width="21.7" height="7.8"/>
	<rect x="902.8" y="304.2" class="st6" width="8" height="7.8"/>
	<rect x="802.2" y="319.6" class="st6" width="36.1" height="7.8"/>
	<rect x="842.4" y="319.6" class="st6" width="25.5" height="7.8"/>
	<rect x="871.1" y="319.6" class="st6" width="7.4" height="7.8"/>
	<rect x="882.6" y="319.6" class="st6" width="34.7" height="7.8"/>
	<rect x="802.2" y="288.7" class="st6" width="36.1" height="7.8"/>
	<rect x="842.4" y="288.7" class="st6" width="21.5" height="7.8"/>
	<rect x="867" y="288.7" class="st6" width="11.4" height="7.8"/>
	<rect x="882.6" y="288.7" class="st6" width="45.7" height="7.8"/>
</g>
<path class="st11" d="M472.9,811.1H760c7.7,0,14,6.3,14,14v108.8c0,7.7-6.3,14-14,14H472.9c-7.7,0-14-6.3-14-14V825.1
	C458.9,817.4,465.2,811.1,472.9,811.1z"/>
<polygon class="st11" points="734,819.7 704.9,719.7 712.4,819.7 "/>
<text transform="matrix(1 0 0 1 491.8779 868.6218)" class="st6 st7 st9">10%</text>
<rect x="628.4" y="860.3" class="st6" width="19.8" height="7.8"/>
<rect x="652.2" y="860.3" class="st6" width="27.8" height="7.8"/>
<rect x="683.2" y="860.3" class="st6" width="41.7" height="7.8"/>
<rect x="729" y="860.3" class="st6" width="8" height="7.8"/>
<rect x="628.4" y="875.8" class="st6" width="36.1" height="7.8"/>
<rect x="668.6" y="875.8" class="st6" width="25.5" height="7.8"/>
<rect x="684.1" y="875.8" class="st6" width="20.6" height="7.8"/>
<rect x="708.8" y="875.8" class="st6" width="34.7" height="7.8"/>
<rect x="628.4" y="829.5" class="st6" width="19.6" height="7.8"/>
<rect x="652.1" y="829.5" class="st6" width="41.6" height="7.8"/>
<rect x="696.9" y="829.5" class="st6" width="35.4" height="7.8"/>
<rect x="728.4" y="829.5" class="st6" width="15.8" height="7.8"/>
<rect x="628.4" y="844.9" class="st6" width="36.1" height="7.8"/>
<rect x="668.6" y="844.9" class="st6" width="25.5" height="7.8"/>
<rect x="697.2" y="844.9" class="st6" width="7.4" height="7.8"/>
<rect x="708.8" y="844.9" class="st6" width="45.7" height="7.8"/>
<rect x="628.4" y="907.3" class="st6" width="19.8" height="7.8"/>
<rect x="652.2" y="907.3" class="st6" width="47.8" height="7.8"/>
<rect x="703.2" y="907.3" class="st6" width="21.7" height="7.8"/>
<rect x="729" y="907.3" class="st6" width="8" height="7.8"/>
<rect x="628.4" y="922.8" class="st6" width="36.1" height="7.8"/>
<rect x="668.6" y="922.8" class="st6" width="25.5" height="7.8"/>
<rect x="697.2" y="922.8" class="st6" width="7.4" height="7.8"/>
<rect x="708.8" y="922.8" class="st6" width="34.7" height="7.8"/>
<rect x="628.4" y="891.9" class="st6" width="36.1" height="7.8"/>
<rect x="668.6" y="891.9" class="st6" width="21.5" height="7.8"/>
<rect x="693.2" y="891.9" class="st6" width="11.4" height="7.8"/>
<rect x="708.8" y="891.9" class="st6" width="45.7" height="7.8"/>
<ellipse transform="matrix(0.7071 -0.7071 0.7071 0.7071 -483.0401 650.4261)" class="st10" cx="543.6" cy="908.3" rx="27.1" ry="27.1"/>
<polygon class="st6" points="561,892.3 559.7,890.9 543.6,906.9 527.6,890.9 526.2,892.3 542.2,908.3 526.2,924.3 527.6,925.8 
	543.6,909.7 559.7,925.8 561,924.3 545,908.3 "/>
<text transform="matrix(1 0 0 1 139.8735 669.5795)" class="st5 st7 st8">15%</text>
<ellipse transform="matrix(3.327794e-02 -0.9994 0.9994 3.327794e-02 -575.5059 649.3861)" class="st5" cx="47.9" cy="622.2" rx="14.5" ry="14.5"/>
<text transform="matrix(1 0 0 1 801.1162 667.125)" class="st5 st7 st8">15%</text>
<circle class="st5" cx="913.3" cy="614.4" r="14.5"/>
</svg>
